/* XPM */
static char * pal_xpm[] = {
"4 4 17 1",
" 	c None",
".	c #201D18",
"+	c #565D3F",
"@	c #9CB458",
"#	c #ADB192",
"$	c #33291B",
"%	c #645738",
"&	c #A8966D",
"*	c #C8AC59",
"=	c #332518",
"-	c #6C5533",
";	c #B79466",
">	c #F1D2A5",
",	c #2D2419",
"'	c #625839",
")	c #A89F64",
"!	c #CDBA85",
".+@#",
"$%&*",
"=-;>",
",')!"};
